# xmcd CD database file
#
# Track frame offsets:
#	150
#	16901
#	33719
#	51499
#	75153
#	87873
#	104061
#
# Disc length: 1652 seconds
#
# Revision: 0
# Processed by: cddbd v1.5.2PL0 Copyright (c) Steve Scherf et al.
# Submitted via: CDex 1.51
#
DISCID=50067207
DTITLE=Bill Brook Blues Band - When The Lights Go Out
DYEAR=2008
DGENRE=Blues
TTITLE0=I Need Somebody
TTITLE1=Something Is Wrong
TTITLE2=Dust My Broom
TTITLE3=The Power Of The Blues
TTITLE4=When The Lights Go Out
TTITLE5=Hypin' Woman
TTITLE6=Some Old Blues
EXTD=YEAR: 2008
EXTT0=
EXTT1=
EXTT2=
EXTT3=
EXTT4=
EXTT5=
EXTT6=
PLAYORDER=
